<?xml version="1.0" standalone="no"?>
<!DOCTYPE svg PUBLIC "-//W3C//DTD SVG 20010904//EN"
 "http://www.w3.org/TR/2001/REC-SVG-20010904/DTD/svg10.dtd">
<svg version="1.0" xmlns="http://www.w3.org/2000/svg"
 width="375.000000pt" height="375.000000pt" viewBox="0 0 375.000000 375.000000"
 preserveAspectRatio="xMidYMid meet">
<metadata>
Created by potrace 1.11, written by Peter Selinger 2001-2013
</metadata>
<g transform="translate(0.000000,375.000000) scale(0.100000,-0.100000)"
fill="#000000" stroke="none">
<path d="M1760 3744 c-380 -24 -724 -151 -1025 -377 -100 -75 -271 -246 -352
-353 -164 -215 -291 -494 -342 -749 -109 -546 13 -1092 342 -1530 75 -100 246
-271 353 -352 498 -379 1165 -483 1764 -276 263 91 493 237 701 443 289 287
470 649 530 1065 30 205 11 540 -42 735 -91 337 -246 606 -489 851 -237 239
-517 399 -853 488 -150 40 -420 65 -587 55z m-324 -1633 c163 -74 113 -311
-66 -311 -49 0 -106 29 -135 68 -13 17 -21 47 -23 87 -5 74 21 119 88 153 53
27 82 27 136 3z m974 -36 l50 49 30 -29 30 -29 -50 -51 -50 -51 50 -49 50 -49
-32 -33 -32 -33 -51 50 -51 50 -49 -50 -49 -50 -30 30 -30 30 49 50 49 50 -52
53 -52 53 32 32 32 32 53 -52 53 -52 50 49z"/>
</g>
</svg>
